<svg id="a27abba2-3862-4460-9e3e-4b8b0670e130" data-name="Layer 1" xmlns="http://www.w3.org/2000/svg" viewBox="0 0 24 24"><title>activity</title><path d="M12,0A12,12,0,1,0,24,12,12,12,0,0,0,12,0m5,12A10.55,10.55,0,0,1,19.4,5.3a9.94,9.94,0,0,1,0,13.4A10.57,10.57,0,0,1,17,12M4.59,18.7a9.94,9.94,0,0,1,0-13.38A10.56,10.56,0,0,1,7,12,10.58,10.58,0,0,1,4.59,18.7M6.08,20A12.62,12.62,0,0,0,9,12a12.61,12.61,0,0,0-2.9-8A9.92,9.92,0,0,1,17.92,4a12.59,12.59,0,0,0,0,16.09A9.92,9.92,0,0,1,6.08,20" style="fill:#364261;fill-rule:evenodd"/></svg>