<svg id="956758cd-bb0e-4d57-96a8-9d3613b1423d" data-name="Layer 1" xmlns="http://www.w3.org/2000/svg" viewBox="0 0 24 24"><title>animals</title><path d="M6.5,7A1.5,1.5,0,1,1,8,5.5,1.5,1.5,0,0,1,6.5,7ZM10,5A3,3,0,1,0,4,5v5a9,9,0,0,0,15,6.66A6.89,6.89,0,0,1,17,17a7,7,0,0,1-7-7V5Zm11.9,6H12.1A5,5,0,0,0,21.9,11ZM15,20.81V23a1,1,0,0,1-2,0V21a11,11,0,0,1-2-.19V23a1,1,0,0,1-2,0V20.24A11,11,0,0,1,2,10V8.93a0.9,0.9,0,0,1-.13-0.07L0.4,7.76a1,1,0,0,1,0-1.6l1.47-1.1A1,1,0,0,1,2,5,5,5,0,0,1,12,5V9H23a1,1,0,0,1,1,1A11,11,0,0,1,15,20.81Z" style="fill:#364261;fill-rule:evenodd"/></svg>