<svg id="dc8d5133-731e-4cbe-9bf4-2bc6537d71c9" data-name="Layer 1" xmlns="http://www.w3.org/2000/svg" xmlns:xlink="http://www.w3.org/1999/xlink" viewBox="0 0 130 80">
  <title>copy</title>
  <polygon points="81.95 5 66.77 5 44 27.63 51.59 35.18 81.95 5" style="fill:#364261;fill-rule:evenodd"/>
  <text id="😜" font-family="AppleColorEmoji, Apple Color Emoji" font-size="80" font-weight="normal" fill="#3F5670" transform="translate(0 -6.33)">
      <tspan x="50" y="80">😜</tspan>
  </text>
  <path d="M32.19,16.1a15.18,15.18,0,0,0-30.36,0A15.18,15.18,0,0,0,17,31.19a11.18,11.18,0,0,0,6.07-1.51l9.11,9.05-9.11,9.05A11.19,11.19,0,0,0,17,46.28,15.09,15.09,0,1,0,32.19,61.36a11,11,0,0,0-1.52-6l9.11-9.05L66.35,72.68H81.53L30.68,22.13a11,11,0,0,0,1.52-6M17,23.64a7.54,7.54,0,1,1,7.59-7.54A7.59,7.59,0,0,1,17,23.64m0,45.27a7.55,7.55,0,1,1,7.59-7.55A7.59,7.59,0,0,1,17,68.91M39.78,36.84a1.89,1.89,0,1,1-1.9,1.89,1.79,1.79,0,0,1,1.9-1.89" transform="translate(-1.84 0.76)" style="fill:#364261;fill-rule:evenodd"/>
</svg>