<svg id="403d10cd-7b42-4146-a8d5-7849aa2714e6" data-name="Layer 1" xmlns="http://www.w3.org/2000/svg" viewBox="0 0 16.5 24"><title>flags</title><path d="M16.16,0.12A0.76,0.76,0,0,0,15.45.06L13,1.14a4.92,4.92,0,0,1-1.81.34A5.44,5.44,0,0,1,8.6.83h0A6.93,6.93,0,0,0,5.34,0,6.45,6.45,0,0,0,3,.45l-2.5,1a0.75,0.75,0,0,0-.47.7V23a1,1,0,1,0,2,0V14l1.52-.6A5,5,0,0,1,5.34,13a5.44,5.44,0,0,1,2.56.65,6.92,6.92,0,0,0,3.26.83A6.5,6.5,0,0,0,13.55,14L16,13a0.75,0.75,0,0,0,.45-0.69V0.75A0.75,0.75,0,0,0,16.16.12ZM14.5,11.45l-1.72.75a4.5,4.5,0,0,1-1.63.3,4.94,4.94,0,0,1-2.32-.59A7.47,7.47,0,0,0,5.34,11a6.9,6.9,0,0,0-2.55.48L2,11.81V3l1.71-.67A4.41,4.41,0,0,1,5.34,2a5,5,0,0,1,2.32.6,7.46,7.46,0,0,0,3.5.89A6.94,6.94,0,0,0,13.71,3l0.07,0,0.73-.32v8.79Z" style="fill:#364261;fill-rule:evenodd"/></svg>