<svg id="6127ad47-1101-4002-bd52-9220d38a43c0" data-name="Layer 1" xmlns="http://www.w3.org/2000/svg" viewBox="0 0 24 24.04"><title>food</title><path d="M18,18.9v-4A0.91,0.91,0,0,0,17,14H16V13.12c0-1.81-2.15-3.18-5-3.18H7c-2.85,0-5,1.37-5,3.18V14H1a0.91,0.91,0,0,0-1,.88v4a1,1,0,0,0,1,1H2v0.8C2,22.5,4.15,24,7,24h4c2.85,0,5-1.53,5-3.34v-0.8h1A1,1,0,0,0,18,18.9ZM4,13.12c0-.41,1.17-1.19,3-1.19h4c1.83,0,3,.78,3,1.19V14H4V13.12Zm10,7.57C14,21.1,12.83,22,11,22H7c-1.83,0-3-.94-3-1.34v-0.8H14v0.8ZM2,18H16V16H2v2ZM24,5a1,1,0,0,1-1,1H21.92L20.57,23a1,1,0,0,1-1,.92H17.41a1,1,0,0,1-1-1c0-.55,0-0.84.59-0.84h2L19.94,6H12.07l0.16,1.91a1,1,0,0,1-.91,1.07H11.23a1,1,0,0,1-1-.91L10.06,6H9A1,1,0,0,1,8,5,1,1,0,0,1,9,4h6.77l1.95-3.52A1,1,0,0,1,19.08.12a1,1,0,0,1,.4,1.35L18.06,4H23A1,1,0,0,1,24,5Z" style="fill:#364261;fill-rule:evenodd"/></svg>