<svg id="f5c77769-b67c-4eef-b205-b9120ba9dd5f" data-name="Layer 1" xmlns="http://www.w3.org/2000/svg" viewBox="0 0 25.66 24"><title>objects</title><path d="M22.81,7.27a1,1,0,0,1-1.4,0L20,5.78l-0.08-.09L18.5,4.3a1,1,0,0,1,0-1.41l0.79-.8a3.1,3.1,0,0,0-1.58.83,2.38,2.38,0,0,0-.51,3.15A1,1,0,0,1,17,7.23l-7.9,8a1,1,0,0,1-1.22.14,2.35,2.35,0,0,0-3.05.56A3.06,3.06,0,0,0,4,17.54l0.8-.81a1,1,0,0,1,1.39,0L7.7,18.21,7.78,18.3,9.15,19.7a1,1,0,0,1,0,1.41l-0.8.81a3,3,0,0,0,1.58-.83,2.42,2.42,0,0,0,.53-3.1,1,1,0,0,1,.14-1.23l7.84-7.94a1,1,0,0,1,1.16-.17,2.52,2.52,0,0,0,3.19-.59,3.08,3.08,0,0,0,.82-1.6Zm-6.16,9.19,5.06,5.12L23.28,20l-5.06-5.13-2.16-.73-0.12.13ZM10.45,2h-3L2.39,7,3.95,8.58,7.19,5.3h0Zm10.4,9a4.34,4.34,0,0,1-1.48-.27l-1.8,1.82,1.5,0.51a1,1,0,0,1,.39.24l5.92,6a1,1,0,0,1,0,1.41l-3,3a1,1,0,0,1-1.4,0l-5.92-6a1,1,0,0,1-.24-0.39l-0.5-1.52L12.5,17.67a4.44,4.44,0,0,1-1.16,4.82A5.26,5.26,0,0,1,7.56,24a5.58,5.58,0,0,1-1.75-.27A1,1,0,0,1,5.15,23a1,1,0,0,1,.26-0.94l1.64-1.66-0.77-.78-0.08-.09-0.68-.69L3.89,20.51a1,1,0,0,1-1.64-.4A5.69,5.69,0,0,1,3.47,14.5a4.38,4.38,0,0,1,4.76-1.19L11,10.53,7.9,7.41,4.65,10.71a1,1,0,0,1-1.4,0l-3-3A1,1,0,0,1,0,7,1,1,0,0,1,.3,6.28L3.08,3.53,2.26,2.71a1,1,0,0,1,0-1.41,1,1,0,0,1,1.4,0L4.49,2.14,6.36,0.29A1,1,0,0,1,7,0h5.78a1,1,0,0,1,.91.62,1,1,0,0,1-.21,1.09L9.29,6l3.08,3.12,2.78-2.81A4.34,4.34,0,0,1,16.31,1.5,5.33,5.33,0,0,1,20.1,0a5.51,5.51,0,0,1,1.73.27,1,1,0,0,1,.66.72,1,1,0,0,1-.26.94L20.59,3.59l0.66,0.67a1,1,0,0,1,.26.27l0.61,0.62,1.64-1.66a1,1,0,0,1,.93-0.27,1,1,0,0,1,.71.67,5.7,5.7,0,0,1-1.22,5.61A4.73,4.73,0,0,1,20.84,11Z" style="fill:#364261;fill-rule:evenodd"/></svg>