<svg id="1f006e99-ad16-4084-864e-050fbfa66457" data-name="Layer 1" xmlns="http://www.w3.org/2000/svg" viewBox="0 0 18.11 24"><title>places-travel</title><path d="M13.48,14A1.5,1.5,0,1,1,12,15.5,1.49,1.49,0,0,1,13.48,14ZM4.61,14a1.5,1.5,0,1,1-1.48,1.5A1.49,1.49,0,0,1,4.61,14Zm9.21-1H4a0.88,0.88,0,0,1-.84-1V5A0.88,0.88,0,0,1,4,4h9.79a1.29,1.29,0,0,1,1.29,1v7A1.29,1.29,0,0,1,13.82,13ZM5,11h8.09V6H5v5Zm13.09,7V3c0-1.35-1.43-2-2.76-2H12.84a1,1,0,1,0-2,0H6.91a1,1,0,1,0-2,0H2.42C1.09,1,.11,1.65.11,3V18a1.91,1.91,0,0,0,2,2L0.21,22.38a1,1,0,0,0,.17,1.4,1,1,0,0,0,1.39-.17L4.56,20h8.66L16,23.62a1,1,0,0,0,1.39.17,1,1,0,0,0,.17-1.4L15.71,20C16.93,19.87,18.11,19.23,18.11,18Zm-2-.5a0.5,0.5,0,0,1-.5.5H2.47A0.5,0.5,0,0,1,2,17.5V3.5A0.5,0.5,0,0,1,2.47,3H15.61a0.5,0.5,0,0,1,.5.5v14Z" style="fill:#364261;fill-rule:evenodd"/></svg>