<?xml version="1.0" encoding="utf-8"?><svg xmlns="http://www.w3.org/2000/svg" xmlns:xlink="http://www.w3.org/1999/xlink"><symbol viewBox="0 0 24 24" id="activity"><title>activity</title><path d="M12 0a12 12 0 1 0 12 12A12 12 0 0 0 12 0m5 12a10.55 10.55 0 0 1 2.4-6.7 9.94 9.94 0 0 1 0 13.4A10.57 10.57 0 0 1 17 12M4.59 18.7a9.94 9.94 0 0 1 0-13.38A10.56 10.56 0 0 1 7 12a10.58 10.58 0 0 1-2.41 6.7M6.08 20A12.62 12.62 0 0 0 9 12a12.61 12.61 0 0 0-2.9-8 9.92 9.92 0 0 1 11.82 0 12.59 12.59 0 0 0 0 16.09A9.92 9.92 0 0 1 6.08 20" fill="#364261" fill-rule="evenodd"/></symbol><symbol viewBox="0 0 24 24" id="animals"><title>animals</title><path d="M6.5 7A1.5 1.5 0 1 1 8 5.5 1.5 1.5 0 0 1 6.5 7zM10 5a3 3 0 1 0-6 0v5a9 9 0 0 0 15 6.66 6.89 6.89 0 0 1-2 .34 7 7 0 0 1-7-7V5zm11.9 6h-9.8a5 5 0 0 0 9.8 0zM15 20.81V23a1 1 0 0 1-2 0v-2a11 11 0 0 1-2-.19V23a1 1 0 0 1-2 0v-2.76A11 11 0 0 1 2 10V8.93a.9.9 0 0 1-.13-.07L.4 7.76a1 1 0 0 1 0-1.6l1.47-1.1A1 1 0 0 1 2 5a5 5 0 0 1 10 0v4h11a1 1 0 0 1 1 1 11 11 0 0 1-9 10.81z" fill="#364261" fill-rule="evenodd"/></symbol><symbol viewBox="0 0 11.2 12" id="clipboard"><title>clipboard</title><path d="M8.8 9.6h.8v1.6a.81.81 0 0 1-.8.8h-8a.81.81 0 0 1-.8-.8V2.4a.81.81 0 0 1 .8-.8h2.4a1.6 1.6 0 1 1 3.2 0h2.4a.81.81 0 0 1 .8.8v4h-.8V4h-8v7.2h8V9.6zM1.6 3.2H8a.81.81 0 0 0-.8-.8h-.8a.81.81 0 0 1-.8-.8.81.81 0 0 0-.24-.6.82.82 0 0 0-1.12 0 .81.81 0 0 0-.24.6.81.81 0 0 1-.8.8h-.8a.81.81 0 0 0-.8.8zm4 1.6h-4v.8h4v-.8zm-2 1.6h-2v.8h2v-.8zm-2 2.4h2V8h-2v.8zm0 .8h3.2v.8H1.6v-.8zm5.6-2.4V5.6L4.8 8l2.4 2.4V8.8h4V7.2h-4z" fill="#231f20"/></symbol><symbol viewBox="0 0 130 80" id="copy-logo"><title>copy logo</title><path fill="#364261" fill-rule="evenodd" d="M81.95 5H66.77L44 27.63l7.59 7.55L81.95 5z"/><text font-family="AppleColorEmoji, Apple Color Emoji" font-size="80" fill="#3F5670" transform="translate(0 -6.33)"><tspan x="50" y="80">😜</tspan></text><path d="M30.35 16.86a15.18 15.18 0 0 0-30.36 0 15.18 15.18 0 0 0 15.17 15.09 11.18 11.18 0 0 0 6.07-1.51l9.11 9.05-9.11 9.05a11.19 11.19 0 0 0-6.07-1.5 15.09 15.09 0 1 0 15.19 15.08 11 11 0 0 0-1.52-6l9.11-9.05 26.57 26.37h15.18L28.84 22.89a11 11 0 0 0 1.52-6m-15.2 7.51a7.54 7.54 0 1 1 7.59-7.54 7.59 7.59 0 0 1-7.59 7.54m0 45.27a7.55 7.55 0 1 1 7.59-7.55 7.59 7.59 0 0 1-7.59 7.55M37.94 37.6a1.89 1.89 0 1 1-1.9 1.89 1.79 1.79 0 0 1 1.9-1.89" fill="#364261" fill-rule="evenodd"/></symbol><symbol viewBox="0 0 16.5 24" id="flags"><title>flags</title><path d="M16.16.12a.76.76 0 0 0-.71-.06L13 1.14a4.92 4.92 0 0 1-1.81.34A5.44 5.44 0 0 1 8.6.83 6.93 6.93 0 0 0 5.34 0 6.45 6.45 0 0 0 3 .45l-2.5 1a.75.75 0 0 0-.47.7V23a1 1 0 1 0 2 0v-9l1.52-.6a5 5 0 0 1 1.79-.4 5.44 5.44 0 0 1 2.56.65 6.92 6.92 0 0 0 3.26.83 6.5 6.5 0 0 0 2.39-.48L16 13a.75.75 0 0 0 .45-.69V.75a.75.75 0 0 0-.29-.63zM14.5 11.45l-1.72.75a4.5 4.5 0 0 1-1.63.3 4.94 4.94 0 0 1-2.32-.59A7.47 7.47 0 0 0 5.34 11a6.9 6.9 0 0 0-2.55.48l-.79.33V3l1.71-.67A4.41 4.41 0 0 1 5.34 2a5 5 0 0 1 2.32.6 7.46 7.46 0 0 0 3.5.89A6.94 6.94 0 0 0 13.71 3h.07l.73-.32v8.79z" fill="#364261" fill-rule="evenodd"/></symbol><symbol viewBox="0 0 24 24.04" id="food"><title>food</title><path d="M18 18.9v-4a.91.91 0 0 0-1-.9h-1v-.88c0-1.81-2.15-3.18-5-3.18H7c-2.85 0-5 1.37-5 3.18V14H1a.91.91 0 0 0-1 .88v4a1 1 0 0 0 1 1h1v.8C2 22.5 4.15 24 7 24h4c2.85 0 5-1.53 5-3.34v-.8h1a1 1 0 0 0 1-.96zM4 13.12c0-.41 1.17-1.19 3-1.19h4c1.83 0 3 .78 3 1.19V14H4v-.88zm10 7.57c0 .41-1.17 1.31-3 1.31H7c-1.83 0-3-.94-3-1.34v-.8h10v.8zM2 18h14v-2H2v2zM24 5a1 1 0 0 1-1 1h-1.08l-1.35 17a1 1 0 0 1-1 .92h-2.16a1 1 0 0 1-1-1c0-.55 0-.84.59-.84h2L19.94 6h-7.87l.16 1.91a1 1 0 0 1-.91 1.07h-.09a1 1 0 0 1-1-.91L10.06 6H9a1 1 0 0 1-1-1 1 1 0 0 1 1-1h6.77L17.72.48a1 1 0 0 1 1.36-.36 1 1 0 0 1 .4 1.35L18.06 4H23a1 1 0 0 1 1 1z" fill="#364261" fill-rule="evenodd"/></symbol><symbol viewBox="0 0 25.66 24" id="objects"><title>objects</title><path d="M22.81 7.27a1 1 0 0 1-1.4 0L20 5.78l-.08-.09L18.5 4.3a1 1 0 0 1 0-1.41l.79-.8a3.1 3.1 0 0 0-1.58.83 2.38 2.38 0 0 0-.51 3.15 1 1 0 0 1-.2 1.16l-7.9 8a1 1 0 0 1-1.22.14 2.35 2.35 0 0 0-3.05.56A3.06 3.06 0 0 0 4 17.54l.8-.81a1 1 0 0 1 1.39 0l1.51 1.48.08.09 1.37 1.4a1 1 0 0 1 0 1.41l-.8.81a3 3 0 0 0 1.58-.83 2.42 2.42 0 0 0 .53-3.1 1 1 0 0 1 .14-1.23l7.84-7.94a1 1 0 0 1 1.16-.17 2.52 2.52 0 0 0 3.19-.59 3.08 3.08 0 0 0 .82-1.6zm-6.16 9.19l5.06 5.12L23.28 20l-5.06-5.13-2.16-.73-.12.13zM10.45 2h-3L2.39 7l1.56 1.58L7.19 5.3zm10.4 9a4.34 4.34 0 0 1-1.48-.27l-1.8 1.82 1.5.51a1 1 0 0 1 .39.24l5.92 6a1 1 0 0 1 0 1.41l-3 3a1 1 0 0 1-1.4 0l-5.92-6a1 1 0 0 1-.24-.39l-.5-1.52-1.82 1.87a4.44 4.44 0 0 1-1.16 4.82A5.26 5.26 0 0 1 7.56 24a5.58 5.58 0 0 1-1.75-.27 1 1 0 0 1-.66-.73 1 1 0 0 1 .26-.94l1.64-1.66-.77-.78-.08-.09-.68-.69-1.63 1.67a1 1 0 0 1-1.64-.4 5.69 5.69 0 0 1 1.22-5.61 4.38 4.38 0 0 1 4.76-1.19L11 10.53 7.9 7.41l-3.25 3.3a1 1 0 0 1-1.4 0l-3-3A1 1 0 0 1 0 7a1 1 0 0 1 .3-.72l2.78-2.75-.82-.82a1 1 0 0 1 0-1.41 1 1 0 0 1 1.4 0l.83.84L6.36.29A1 1 0 0 1 7 0h5.78a1 1 0 0 1 .91.62 1 1 0 0 1-.21 1.09L9.29 6l3.08 3.12 2.78-2.81a4.34 4.34 0 0 1 1.16-4.81A5.33 5.33 0 0 1 20.1 0a5.51 5.51 0 0 1 1.73.27 1 1 0 0 1 .66.72 1 1 0 0 1-.26.94l-1.64 1.66.66.67a1 1 0 0 1 .26.27l.61.62 1.64-1.66a1 1 0 0 1 .93-.27 1 1 0 0 1 .71.67 5.7 5.7 0 0 1-1.22 5.61 4.73 4.73 0 0 1-3.34 1.5z" fill="#364261" fill-rule="evenodd"/></symbol><symbol viewBox="0 0 24 24" id="people"><title>people</title><path d="M8 12a2 2 0 1 1 2-2 2 2 0 0 1-2 2zm8 0a2 2 0 1 1 2-2 2 2 0 0 1-2 2zm-4 8a7.7 7.7 0 0 1-6.9-4.57 1 1 0 1 1 1.8-.86A5.72 5.72 0 0 0 12 18a5.69 5.69 0 0 0 5.1-3.43 1 1 0 1 1 1.81.85A7.67 7.67 0 0 1 12 20zm0-18a10 10 0 1 0 10 10A10 10 0 0 0 12 2zm0 22a12 12 0 1 1 12-12 12 12 0 0 1-12 12z" fill="#364261" fill-rule="evenodd"/></symbol><symbol viewBox="0 0 18.11 24" id="places-travel"><title>places-travel</title><path d="M13.48 14A1.5 1.5 0 1 1 12 15.5a1.49 1.49 0 0 1 1.48-1.5zm-8.87 0a1.5 1.5 0 1 1-1.48 1.5A1.49 1.49 0 0 1 4.61 14zm9.21-1H4a.88.88 0 0 1-.84-1V5A.88.88 0 0 1 4 4h9.79a1.29 1.29 0 0 1 1.29 1v7a1.29 1.29 0 0 1-1.26 1zM5 11h8.09V6H5v5zm13.09 7V3c0-1.35-1.43-2-2.76-2h-2.49a1 1 0 1 0-2 0H6.91a1 1 0 1 0-2 0H2.42C1.09 1 .11 1.65.11 3v15a1.91 1.91 0 0 0 2 2l-1.9 2.38a1 1 0 0 0 .17 1.4 1 1 0 0 0 1.39-.17L4.56 20h8.66L16 23.62a1 1 0 0 0 1.39.17 1 1 0 0 0 .17-1.4L15.71 20c1.22-.13 2.4-.77 2.4-2zm-2-.5a.5.5 0 0 1-.5.5H2.47a.5.5 0 0 1-.47-.5v-14a.5.5 0 0 1 .47-.5h13.14a.5.5 0 0 1 .5.5v14z" fill="#364261" fill-rule="evenodd"/></symbol><symbol viewBox="0 0 0 0" id="symbol--sprite"/><symbol viewBox="0 0 24 20.79" id="symbols"><title>symbols</title><path d="M12 20.79L24 0H0zm0-4L6.73 7.65h10.55zm6.43-11.14H5.57L3.46 2h17.08z" fill="#364261" fill-rule="evenodd"/></symbol></svg>